<svg xmlns="http://www.w3.org/2000/svg" width="50" height="50" viewBox="0 0 50 50">
    <g fill="#8AC53F" fill-rule="nonzero">
        <path d="M45 20a.833.833 0 1 0 0-1.666h-.833a.833.833 0 1 0 0 1.667H45zM42.94 37.05a.836.836 0 0 0-1.18 0l-2.35 2.363a.832.832 0 1 0 1.18 1.175l1.762-1.77 5.249 5.249c.472.472.732 1.1.732 1.767 0 .668-.26 1.296-.732 1.768a2.503 2.503 0 0 1-3.535 0l-9.875-9.874a.834.834 0 0 0-1.178 1.179l9.875 9.874a4.15 4.15 0 0 0 2.945 1.218 4.156 4.156 0 0 0 2.946-1.218A4.142 4.142 0 0 0 50 45.834a4.14 4.14 0 0 0-1.22-2.946l-5.84-5.839zM20 3.334c-9.19 0-16.667 7.477-16.667 16.667 0 9.19 7.477 16.666 16.667 16.666 9.19 0 16.667-7.476 16.667-16.666 0-9.19-7.477-16.667-16.667-16.667zm0 31.667c-8.27 0-15-6.73-15-15S11.73 5 20 5s15 6.73 15 15-6.73 15-15 15z"/>
        <path d="M26.043 24.699c.502.501.646 1.172.321 1.497-.325.325-.995.18-1.497-.321l-10.91-10.91c-.502-.502-.646-1.173-.321-1.497.325-.325.995-.181 1.497.32l10.91 10.91z"/>
        <path d="M13.957 24.699l10.91-10.91c.502-.502 1.172-.646 1.497-.321.325.324.18.995-.32 1.497l-10.91 10.91c-.503.501-1.173.646-1.498.32-.325-.324-.18-.995.32-1.496z"/>
        <path d="M40 20C40 8.974 31.028 0 20 0S0 8.974 0 20c0 11.028 8.972 20 20 20s20-8.972 20-20zM20 38.335c-10.11 0-18.333-8.224-18.333-18.333C1.667 9.89 9.89 1.667 20 1.667c10.11 0 18.333 8.225 18.333 18.334S30.11 38.334 20 38.334zM37.726 33.013a.834.834 0 0 0 0 1.179l1.768 1.768a.83.83 0 0 0 1.178 0 .834.834 0 0 0 0-1.178l-1.767-1.769a.835.835 0 0 0-1.18 0zM49.167 16.892v-.224c0-2.758-2.243-5-5-5h-2.5a.833.833 0 1 0 0 1.666h2.5a3.337 3.337 0 0 1 3.333 3.333v.834c0 .46.372.833.833.833v1.667a.833.833 0 0 0-.833.833c0 1.442-.738 2.947-.746 2.96-.867 1.736-1.632 2.873-4.254 2.873-.383 0-.742-.026-1.065-.078a.832.832 0 1 0-.264 1.646c.41.066.858.099 1.329.099 3.848 0 4.99-2.283 5.746-3.794.033-.067.73-1.477.889-3.078.515-.284.865-.833.865-1.461v-1.667c0-.616-.335-1.154-.833-1.442z"/>
    </g>
</svg>
